# xmcd
#
# Track frame offsets:
#	150
#	41467
#	72360
#	96537
#	115217
#	134237
#	169367
#	194257
#	229985
#	261262
#
# Disc length: 3911 seconds
#
# Revision: 0
# Processed by: cddbd v1.5.1PL0 Copyright (c) Steve Scherf et al.
# Submitted via: dBpowerAMP V4.0
#
DISCID=9d0f450a
DTITLE=The Cincinnati Blues Allstars - Live At Burbanks
DYEAR=1992
DGENRE=Blues
TTITLE0=Goin' Down Slow
TTITLE1=Dust My Broom
TTITLE2=Dream
TTITLE3=Miss Fanny
TTITLE4=I'm Not Drink, I'm Just Drinkin'
TTITLE5=Little Red Rooster
TTITLE6=It Hurts Me Too
TTITLE7=Mustang Sally
TTITLE8=Thrill Is Gone
TTITLE9=Honky Tonk
EXTD=
EXTT0=
EXTT1=
EXTT2=
EXTT3=
EXTT4=
EXTT5=
EXTT6=
EXTT7=
EXTT8=
EXTT9=
PLAYORDER=
